<svg
        xmlns="http://www.w3.org/2000/svg"
        version="1.1"
        width="60"
        height="60"
        viewBox="556.66 264.43 166.78 190.59"
>
    <g stroke-width="2.00" fill="none" stroke-linecap="butt">
        <path
                stroke="#fff"
                vector-effect="non-scaling-stroke"
                d="   M 639.91 360.23   L 559.15 313.62   A 1.00 0.99 -75.1 0 0 557.66 314.49   L 557.70 404.79   A 3.75 3.73 15.0 0 0 559.58 408.03   L 583.39 421.67   A 0.69 0.69 0.0 0 0 584.42 421.07   L 584.36 408.78   Q 584.35 406.36 586.42 407.60   L 639.87 439.33"
        />
        <path
                stroke="#fff"
                vector-effect="non-scaling-stroke"
                d="   M 639.87 439.33   L 639.84 453.22   A 0.80 0.79 -14.7 0 0 641.03 453.91   L 665.08 440.18   A 4.06 4.04 -15.0 0 0 667.12 436.67   L 667.12 424.96   A 3.38 3.37 75.2 0 1 668.82 422.03   L 694.19 407.48   A 0.41 0.41 0.0 0 1 694.80 407.84   L 694.80 421.67   A 0.62 0.62 0.0 0 0 695.73 422.21   L 720.87 407.85   A 3.13 3.13 0.0 0 0 722.44 405.12   L 722.11 363.87   A 0.69 0.68 -13.8 0 0 721.11 363.27   L 710.79 368.47   Q 710.13 368.80 710.13 368.06   L 710.12 354.69   A 1.60 1.59 -15.0 0 1 710.92 353.31   L 721.35 347.44   A 1.51 1.50 -14.7 0 0 722.11 346.15   L 722.36 313.24   Q 722.36 312.74 721.93 312.99   L 639.91 360.23"
        />
        <path
                stroke="#fff"
                vector-effect="non-scaling-stroke"
                d="   M 639.87 439.33   L 639.91 360.23"
        />
        <path
                stroke="#fff"
                vector-effect="non-scaling-stroke"
                d="   M 694.19 359.91   L 668.01 374.91   A 1.77 1.76 75.0 0 0 667.13 376.44   L 667.11 390.01   Q 667.11 392.23 669.04 391.13   L 694.59 376.51   A 0.43 0.42 75.7 0 0 694.80 376.14   L 694.77 360.24   A 0.39 0.38 -15.0 0 0 694.19 359.91"
        />
        <path
                stroke="#fff"
                vector-effect="non-scaling-stroke"
                d="   M 611.44 391.54   Q 612.82 392.34 612.81 390.74   L 612.77 376.07   Q 612.77 375.52 612.30 375.25   L 586.27 360.12   A 1.27 1.27 0.0 0 0 584.36 361.22   L 584.37 374.80   A 1.77 1.75 15.2 0 0 585.25 376.32   L 611.44 391.54"
        />
    </g>
    <path
            fill="#fff"
            d="   M 722.78 312.67   Q 722.89 312.60 723.03 312.60   A 0.11 0.10 3.2 0 1 723.13 312.70   L 722.93 346.36   A 1.92 1.91 75.3 0 1 721.96 348.03   L 711.45 353.98   Q 710.96 354.26 710.96 354.82   L 710.98 366.80   Q 710.98 367.43 711.54 367.15   L 721.26 362.30   A 1.19 1.18 76.6 0 1 722.97 363.36   Q 722.98 383.44 723.15 404.01   Q 723.18 407.66 720.30 409.27   Q 708.92 415.62 697.60 422.04   Q 696.85 422.47 696.38 422.65   A 1.74 1.74 0.0 0 1 694.03 421.02   L 694.03 409.20   A 0.38 0.37 75.3 0 0 693.47 408.87   L 669.09 422.81   A 2.22 2.20 -15.0 0 0 667.97 424.73   L 667.98 436.96   A 4.33 4.32 -15.0 0 1 665.81 440.71   L 641.84 454.42   A 1.86 1.85 -15.3 0 1 639.06 452.84   L 638.92 440.43   Q 638.92 439.75 638.33 439.40   L 585.99 408.37   Q 585.39 408.01 585.38 408.72   L 585.30 421.97   A 1.02 1.02 0.0 0 1 583.78 422.85   Q 573.74 417.23 563.99 411.72   Q 560.44 409.71 557.55 407.36   A 1.45 1.43 -70.7 0 1 557.02 406.24   L 557.02 314.33   A 3.99 3.98 75.0 0 1 559.01 310.88   L 584.21 296.41   A 1.94 1.94 0.0 0 1 586.15 296.41   L 612.04 311.54   Q 612.48 311.79 612.91 311.54   L 637.96 297.00   A 0.57 0.57 0.0 0 0 637.96 296.01   Q 626.18 289.23 614.25 282.24   Q 613.10 281.56 613.28 280.79   A 2.85 1.28 -85.1 0 1 614.27 279.01   L 639.51 264.57   Q 640.00 264.29 640.49 264.56   Q 642.05 265.43 646.02 267.73   Q 683.39 289.35 720.76 310.98   Q 721.98 311.69 722.25 312.48   Q 722.39 312.92 722.78 312.67   Z   M 639.91 360.23   L 559.15 313.62   A 1.00 0.99 -75.1 0 0 557.66 314.49   L 557.70 404.79   A 3.75 3.73 15.0 0 0 559.58 408.03   L 583.39 421.67   A 0.69 0.69 0.0 0 0 584.42 421.07   L 584.36 408.78   Q 584.35 406.36 586.42 407.60   L 639.87 439.33   L 639.84 453.22   A 0.80 0.79 -14.7 0 0 641.03 453.91   L 665.08 440.18   A 4.06 4.04 -15.0 0 0 667.12 436.67   L 667.12 424.96   A 3.38 3.37 75.2 0 1 668.82 422.03   L 694.19 407.48   A 0.41 0.41 0.0 0 1 694.80 407.84   L 694.80 421.67   A 0.62 0.62 0.0 0 0 695.73 422.21   L 720.87 407.85   A 3.13 3.13 0.0 0 0 722.44 405.12   L 722.11 363.87   A 0.69 0.68 -13.8 0 0 721.11 363.27   L 710.79 368.47   Q 710.13 368.80 710.13 368.06   L 710.12 354.69   A 1.60 1.59 -15.0 0 1 710.92 353.31   L 721.35 347.44   A 1.51 1.50 -14.7 0 0 722.11 346.15   L 722.36 313.24   Q 722.36 312.74 721.93 312.99   L 639.91 360.23   Z   M 667.98 342.95   L 692.42 328.96   Q 693.14 328.55 692.44 328.11   Q 682.18 321.63 671.44 315.29   Q 667.71 313.09 663.99 315.21   Q 653.05 321.44 642.25 327.91   Q 641.78 328.18 642.25 328.46   L 667.16 342.95   Q 667.57 343.19 667.98 342.95   Z"
    />
    <path
            fill="#fff0"
            d="   M 639.87 439.33   L 639.91 360.23   L 721.93 312.99   Q 722.36 312.74 722.36 313.24   L 722.11 346.15   A 1.51 1.50 -14.7 0 1 721.35 347.44   L 710.92 353.31   A 1.60 1.59 -15.0 0 0 710.12 354.69   L 710.13 368.06   Q 710.13 368.80 710.79 368.47   L 721.11 363.27   A 0.69 0.68 -13.8 0 1 722.11 363.87   L 722.44 405.12   A 3.13 3.13 0.0 0 1 720.87 407.85   L 695.73 422.21   A 0.62 0.62 0.0 0 1 694.80 421.67   L 694.80 407.84   A 0.41 0.41 0.0 0 0 694.19 407.48   L 668.82 422.03   A 3.38 3.37 75.2 0 0 667.12 424.96   L 667.12 436.67   A 4.06 4.04 -15.0 0 1 665.08 440.18   L 641.03 453.91   A 0.80 0.79 -14.7 0 1 639.84 453.22   L 639.87 439.33   Z   M 694.19 359.91   L 668.01 374.91   A 1.77 1.76 75.0 0 0 667.13 376.44   L 667.11 390.01   Q 667.11 392.23 669.04 391.13   L 694.59 376.51   A 0.43 0.42 75.7 0 0 694.80 376.14   L 694.77 360.24   A 0.39 0.38 -15.0 0 0 694.19 359.91   Z"
    />
    <path
            fill="#fff0"
            d="   M 639.91 360.23   L 639.87 439.33   L 586.42 407.60   Q 584.35 406.36 584.36 408.78   L 584.42 421.07   A 0.69 0.69 0.0 0 1 583.39 421.67   L 559.58 408.03   A 3.75 3.73 15.0 0 1 557.70 404.79   L 557.66 314.49   A 1.00 0.99 -75.1 0 1 559.15 313.62   L 639.91 360.23   Z   M 611.44 391.54   Q 612.82 392.34 612.81 390.74   L 612.77 376.07   Q 612.77 375.52 612.30 375.25   L 586.27 360.12   A 1.27 1.27 0.0 0 0 584.36 361.22   L 584.37 374.80   A 1.77 1.75 15.2 0 0 585.25 376.32   L 611.44 391.54   Z"
    />
    <path
            fill="#fff"
            d="   M 611.44 391.54   L 585.25 376.32   A 1.77 1.75 15.2 0 1 584.37 374.80   L 584.36 361.22   A 1.27 1.27 0.0 0 1 586.27 360.12   L 612.30 375.25   Q 612.77 375.52 612.77 376.07   L 612.81 390.74   Q 612.82 392.34 611.44 391.54   Z   M 585.64 360.71   A 0.30 0.30 0.0 0 0 585.19 360.97   L 585.40 375.18   A 0.30 0.30 0.0 0 0 585.55 375.44   L 611.56 390.70   A 0.30 0.30 0.0 0 0 612.01 390.44   L 612.02 376.24   A 0.30 0.30 0.0 0 0 611.87 375.98   L 585.64 360.71   Z"
    />
    <path
            fill="#fff"
            d="   M 668.01 374.91   L 694.19 359.91   A 0.39 0.38 -15.0 0 1 694.77 360.24   L 694.80 376.14   A 0.43 0.42 75.7 0 1 694.59 376.51   L 669.04 391.13   Q 667.11 392.23 667.11 390.01   L 667.13 376.44   A 1.77 1.76 75.0 0 1 668.01 374.91   Z   M 669.26 390.04   L 693.56 376.13   Q 694.03 375.86 694.03 375.31   L 694.03 361.75   Q 694.03 361.02 693.39 361.38   L 668.45 375.64   A 0.97 0.96 -15.0 0 0 667.96 376.48   L 667.98 389.29   Q 667.98 390.77 669.26 390.04   Z"
    />
</svg>
